<svg id="Layer_1" data-name="Layer 1" xmlns="http://www.w3.org/2000/svg" viewBox="0 0 1920 950"><defs><style>.cls-1{fill:#fff;}.cls-2{fill:#c41b1b;}.cls-3{fill:#fcd4d4;}.cls-4{fill:#f9f9f9;}.cls-5{fill:#f4e6e6;}.cls-6{fill:#f7f7f7;}.cls-7{fill:#f9d4d4;}.cls-8{fill:#f9e1e1;}</style></defs><title>background-vector</title><rect class="cls-1" width="1920" height="950"/><path class="cls-2" d="M-543.29,306.24,102.81-319.9c48.36-46.87,126.77-46.87,175.14,0L923.31,305.53c48.36,46.87,48.36,122.86,0,169.73L277.21,1101.4c-48.36,46.87-126.77,46.87-175.14,0L-543.29,476C-591.66,429.1-591.66,353.11-543.29,306.24Z"/><rect class="cls-2" x="1485.32" y="828.17" width="220.11" height="219.91" rx="50" ry="50" transform="translate(-196.08 1402.87) rotate(-45)"/><rect class="cls-3" x="1501.89" y="247.99" width="183.65" height="183.48" rx="41.72" ry="41.72" transform="translate(226.56 1226.43) rotate(-45)"/><rect class="cls-4" x="1190.36" y="384.02" width="110.05" height="109.95" rx="25" ry="25" transform="translate(54.35 1009.2) rotate(-45)"/><rect class="cls-5" x="749.92" y="788.9" width="69.42" height="69.36" rx="15.77" ry="15.77" transform="translate(-352.55 796.04) rotate(-45)"/><rect class="cls-6" x="1110.78" y="726.07" width="110.05" height="109.95" rx="25" ry="25" transform="translate(-210.83 1053.11) rotate(-45)"/><rect class="cls-7" x="1102.57" y="146.96" width="37.13" height="37.1" rx="8.44" ry="8.44" transform="translate(211.34 841.24) rotate(-45)"/><rect class="cls-8" x="1521.61" y="602.88" width="23.43" height="23.41" rx="5.33" ry="5.33" transform="translate(14.53 1264.23) rotate(-45)"/></svg>