<svg id="Layer_1" data-name="Layer 1" xmlns="http://www.w3.org/2000/svg" viewBox="0 0 1920 950"><defs><style>.cls-1{fill:#fff;}.cls-2{fill:#c41b1b;}.cls-3{fill:#fcd4d4;}.cls-4{fill:#f2e2e2;}.cls-5{fill:#f9d4d4;}</style></defs><title>bg-v2</title><rect class="cls-1" width="1920" height="950"/><rect class="cls-2" x="139.17" y="-240.73" width="560.63" height="560.13" rx="59.78" ry="59.78" transform="translate(95.06 308.14) rotate(-45)"/><rect class="cls-2" x="1485.32" y="828.17" width="220.11" height="219.91" rx="50" ry="50" transform="translate(-196.08 1402.87) rotate(-45)"/><rect class="cls-3" x="1501.89" y="247.99" width="183.65" height="183.48" rx="41.72" ry="41.72" transform="translate(226.56 1226.43) rotate(-45)"/><rect class="cls-4" x="803.37" y="509.38" width="110.05" height="109.95" rx="25" ry="25" transform="translate(-147.64 772.28) rotate(-45)"/><rect class="cls-4" x="516.36" y="903.44" width="69.42" height="69.36" rx="15.77" ry="15.77" transform="translate(-501.95 664.43) rotate(-45)"/><rect class="cls-5" x="140.31" y="748.29" width="110.05" height="109.95" rx="25" ry="25" transform="translate(-510.78 373.39) rotate(-45)"/><rect class="cls-5" x="176.77" y="433.7" width="37.13" height="37.1" rx="8.44" ry="8.44" transform="translate(-262.58 270.58) rotate(-45)"/><rect class="cls-5" x="1147.25" y="275.97" width="37.13" height="37.1" rx="8.44" ry="8.44" transform="translate(133.2 910.62) rotate(-45)"/></svg>